<?xml version="1.0" encoding="iso-8859-1"?>
<!-- Generator: Adobe Illustrator 19.1.0, SVG Export Plug-In . SVG Version: 6.00 Build 0)  -->
<svg version="1.1" id="Capa_1" xmlns="http://www.w3.org/2000/svg" xmlns:xlink="http://www.w3.org/1999/xlink" x="0px" y="0px"
	 viewBox="0 0 61.57 61.57" style="enable-background:new 0 0 61.57 61.57;" xml:space="preserve">
<g>
	<g id="group-8svg">
		<path id="path-1_29_" d="M47.365,53.028c-1.719,0-3.336-0.67-4.552-1.887c-2.511-2.51-2.511-6.595,0-9.106
			c1.216-1.216,2.833-1.885,4.552-1.885c1.72,0,3.337,0.669,4.554,1.885c2.511,2.511,2.511,6.596,0,9.106
			C50.702,52.358,49.085,53.028,47.365,53.028z M47.365,43.15c-0.917,0-1.782,0.357-2.431,1.006c-1.341,1.341-1.341,3.523,0,4.865
			c1.299,1.299,3.563,1.298,4.864-0.001c1.341-1.341,1.341-3.523,0-4.864C49.149,43.507,48.284,43.15,47.365,43.15z"/>
		<path id="path-2_27_" d="M32.818,61.57h-7c-2.025,0-2.807-1.125-2.807-3.009V43.5c-10-2.895-15.243-10.712-15.243-21.13
			c0-10.224,6.541-19.097,16.059-21.578C25.842,0.266,27.827,0,29.834,0c12.221,0,22.35,10.035,22.35,22.37
			c0,10.188-8.173,18.138-15.173,21.079v15.112C37.011,60.361,35.071,61.57,32.818,61.57z M26.011,58.559
			c0,0.007-0.292,0.011-0.193,0.011h7c0.376,0,0.193-0.068,1.193-0.125V42.383c0-0.652,0.209-1.23,0.83-1.429
			c6.94-2.213,14.209-9.479,14.209-18.584C49.05,11.69,40.401,3,29.834,3c-1.751,0-3.562,0.234-5.331,0.694
			c-8.197,2.138-13.934,9.817-13.934,18.676c0,9.369,5.403,16.301,14.109,18.542c0.663,0.17,1.333,0.768,1.333,1.452V58.559z"/>
		<path id="path-3_25_" d="M34.584,43.57h-11c-0.828,0-1.5-0.671-1.5-1.5c0-0.828,0.672-1.5,1.5-1.5h11c0.828,0,1.5,0.672,1.5,1.5
			C36.084,42.899,35.412,43.57,34.584,43.57z"/>
		<path id="path-4_20_" d="M34.584,48.57h-10c-0.828,0-1.5-0.671-1.5-1.5c0-0.828,0.672-1.5,1.5-1.5h10c0.828,0,1.5,0.672,1.5,1.5
			C36.084,47.899,35.412,48.57,34.584,48.57z"/>
	</g>
</g>
<g>
</g>
<g>
</g>
<g>
</g>
<g>
</g>
<g>
</g>
<g>
</g>
<g>
</g>
<g>
</g>
<g>
</g>
<g>
</g>
<g>
</g>
<g>
</g>
<g>
</g>
<g>
</g>
<g>
</g>
</svg>
